<svg width="26" height="26" fill="none" xmlns="http://www.w3.org/2000/svg"><path d="m20.7 10 .4.2a2.7 2.7 0 0 1 1.1 4.3l-.2.2a24.5 24.5 0 0 1-5.8 4.7l-3.1 1.9h-.2l-3.2-1.9A24.5 24.5 0 0 1 4 14.7l-.2-.2a2.7 2.7 0 0 1 1-4.3l.5-.2m4.1 6.5L6 12a3.2 3.2 0 0 1 1.5-5l.6-.2 1.3-.4h.2a3 3 0 0 0-.3 2.2m0 0 2 7m-2-7A3 3 0 0 1 10.8 5c1.4-.6 3-.6 4.4 0a3 3 0 0 1 1.5 3.5m-2 7 2-7m0 0a3 3 0 0 0-.3-2.2c.5 0 1 .2 1.5.4l.6.2a3.2 3.2 0 0 1 1.5 5l-3.4 4.6" stroke="#000" stroke-linecap="round"/><path clip-rule="evenodd" d="M18.4 18v2c0 1-.7 1.7-1.6 1.7H9.2c-.9 0-1.6-.8-1.6-1.7v-2l2.1 1.4 3.2 1.9h.2l3.2-1.9 2.1-1.4Z" stroke="#000" stroke-linecap="round"/></svg>