<svg width="26" height="26" fill="none" xmlns="http://www.w3.org/2000/svg"><path d="M4 13.4c1.8 1.3 3 3.4 3.3 5.6M3 14.4l.4.2A6 6 0 0 1 5.8 19l.2 1a1.4 1.4 0 0 0 1.8 1.3c1-.3 1.6-1.2 1.5-2.2l-.1-3.4c-.1-1.6-1-3.2-2.4-4l-.3-.3a3 3 0 0 0-3.6.3 1.8 1.8 0 0 0 .1 2.8ZM15 5.2c-1.4 1.8-2 4-1.7 6.3m3-5.6-.4.4a6 6 0 0 0-1.2 4.7l.1 1a1.4 1.4 0 0 1-1.4 1.7c-1 0-2-.7-2.1-1.7l-.7-3.3c-.4-1.6.1-3.3 1.2-4.5l.3-.3a3 3 0 0 1 3.5-.7 1.8 1.8 0 0 1 .6 2.7ZM15.4 18.3c2.1-.9 3.8-2.6 4.6-4.6M14.7 17l.4-.1a6 6 0 0 0 3.5-3.5l.4-1a1.4 1.4 0 0 1 2-.7c1 .5 1.3 1.6 1 2.5l-1 3.2a5.2 5.2 0 0 1-3.3 3.3l-.4.2a3 3 0 0 1-3.4-1.2 1.8 1.8 0 0 1 .8-2.7Z" stroke="#000" stroke-linecap="round"/></svg>