<svg width="26" height="26" fill="none" xmlns="http://www.w3.org/2000/svg"><g clip-path="url(#a)"><path d="m17.9 11.6.2.3h1.4a1 1 0 0 0 .5-2h0l1-.3a1 1 0 0 0 .1-1.9l-.4-.2.3-.3a1.5 1.5 0 0 0-2.2-2.1l-.3.3-.2-.5a1 1 0 0 0-1.9.1l-.3 1h0a1 1 0 0 0-2 .3v1.5l.3.2m3.5 3.6a1 1 0 0 0-1.4 0l-10.2 10a1 1 0 0 1-1 .2M18 11.6c.3.3.4.7.2 1l.9-.3a1 1 0 0 1 1.4 1.2l-.2.5h1a1.4 1.4 0 1 1 0 3h-1l.2.5a1 1 0 0 1-1.4 1.2l-1-.5v.1a1 1 0 0 1-1.7 1L14 17l-5.8 5.8a2 2 0 0 1-2.9 0L4 21.5l1.4.3m0 0-1-.2-.3-1m0 0c0-.4 0-.8.3-1m-.3 1 .3 1.3-1.2-1.2a2 2 0 0 1 0-2.9L9 12 6.6 9.6a1 1 0 0 1 1-1.7h.1l-.5-1a1 1 0 0 1 1.3-1.4l.5.2v-1a1.4 1.4 0 1 1 2.9 0v1l.5-.2a1 1 0 0 1 1.3 1.4l-.5 1c.4-.3.9-.2 1.2.1m-10 11.6 7-7.1 2.7-2.7h0l.3-.3m-10 10 10-10m0 0c.4-.4.4-1 0-1.5m3.8-.2-1 1m-6.8-1.2v1.5M8 13.8l4.3 4.3m6.1-2.6h-1.5" stroke="#000" stroke-linecap="round"/></g><defs><clipPath id="a"><path fill="#fff" d="M0 0h26v26H0z"/></clipPath></defs></svg>