<svg width="26" height="26" fill="none" xmlns="http://www.w3.org/2000/svg"><path d="m5.4 8.7 2.2.3A3.7 3.7 0 0 0 12 5.4L9.7 6.5V3.2h-.2c-2.3.2-4 2-4 4.4v1Zm0 0v.7c0 1 .3 1.8 1 2.6l1.2 1.7M7 14H5.7c-.8 0-1.6.4-2 1.2l-.5 1m3 1h-.5c-.8 0-1.6.5-2 1.2l-.5 1m6 1H7.8c-.8 0-1.5.5-1.9 1.3l-.5 1M19 14h1.3c.8 0 1.6.4 2 1.2l.4 1m-3 1h.6c.8 0 1.6.5 2 1.2l.4 1m-6 1h1.5c.8 0 1.5.5 1.9 1.3l.5 1m0-14.1v.7c0 1-.3 1.8-1 2.6l-1.2 1.7m2.2-5-2.2.3A3.7 3.7 0 0 1 14 5.4l2.2 1.1V3.2h.2c2.3.2 4 2 4 4.4v1ZM9 20.4l.9.5c2 1.2 4.3 1.2 6.2 0l1-.5a5.8 5.8 0 0 0 2.7-3.8c.3-1.3-.6-2.6-1.9-2.9h0l-1.2-.2a25 25 0 0 0-7.4 0l-1 .2a2.4 2.4 0 0 0-2 2.9c.3 1.6 1.3 3 2.7 3.8Z" stroke="#000" stroke-linecap="round"/><path clip-rule="evenodd" d="M11.4 11.5v-.1 0ZM14.6 11.5v-.1 0Z" stroke="#000" stroke-width="1.5" stroke-linecap="round" stroke-linejoin="round"/></svg>