<svg width="26" height="26" fill="none" xmlns="http://www.w3.org/2000/svg"><path clip-rule="evenodd" d="M9 10.2c5-3.2 11.7-1.6 14.8 3.4l-.2.4a10.7 10.7 0 0 1-16.2 1.7 4 4 0 0 1-4 2.6h-.1V18c0-1.7.7-3.2 1.9-4.3a5 5 0 0 1-2-3.6V8.9h.3c1.7.1 3.1 1.2 3.8 2.6.5-.5 1.1-1 1.8-1.3Zm6.2 8.4h.1a6.7 6.7 0 0 1-5.4 2c.4-.9.8-1.8 1-2.7 1.4.5 2.8.8 4.3.7Zm1-10.1.2.2c-2.1-.4-4.4 0-6.4 1-.6-1.4-1.5-2.5-2.4-3.5l1.3-.5c2.8-.9 5.7.4 7.4 2.8Z" stroke="#000" stroke-linecap="round"/><path clip-rule="evenodd" d="M19 12.6v-.1 0Z" stroke="#000" stroke-width="1.5" stroke-linecap="round" stroke-linejoin="round"/></svg>