<svg width="26" height="26" fill="none" xmlns="http://www.w3.org/2000/svg"><g clip-path="url(#a)"><path d="M3.8 22.2 19.5 6.5M3.8 22.2l1.4-1.4c1.1-1.1 1.4-3 .5-4.3m-2 5.7 4.6-4.5c1-1 1-2.8 0-3.8m-4.5 8.3L12 14c.7-.7.7-1.7 0-2.3M3.8 22.2 17 9c.4-.4.4-1.1 0-1.5M3.8 22.2l11.8-11.8c.4-.4.4-1 0-1.5M3.8 22.2l1.4-1.4c1.2-1.2 3-1.4 4.3-.6m-5.7 2 4.5-4.5c1-1 2.8-1 3.8 0m-8.3 4.5L12 14c.7-.7 1.7-.7 2.3 0M3.8 22.2 17 9c.4-.4 1.1-.4 1.5 0M3.8 22.2l11.8-11.8c.4-.4 1-.4 1.5 0m-10 2.3.6 1A1.6 1.6 0 0 1 6.3 16H5.2a1.6 1.6 0 0 1-1.4-2.4l.6-1c.4-.8 1.4-1 2.2-.6m.5.6c0-.2-.3-.4-.5-.6m.5.6.5.7.4.1h1.2a1.6 1.6 0 0 0 1.4-2.5m-4 1.1h-.2v-.2l.3-.9.5-1c.5-.7 1.5-1 2.3-.5m2.9 8.8 1 .6a1.6 1.6 0 0 1 0 2.8m-1-3.4a1.6 1.6 0 0 0-2.5 1.4v1.2a1.6 1.6 0 0 0 2.5 1.3l1-.5m-1-3.4.2.1v-1.6a1.6 1.6 0 0 1 2.4-1.4m-1.7 6.3c.7-.5 1-1.4.7-2.1a1.7 1.7 0 0 0 1-.2l1-.6c.7-.5 1-1.5.5-2.2m-6-5.6-.5-1-.5-.5m1 1.5.2.2h1.2a1.6 1.6 0 0 0 1.4-2.5l-.5-1a1.6 1.6 0 0 0-2.8 0l-.6 1-.2.7.3.1m7 7c-.1-.2-.3-.4-.6-.5l-1-.6m1.6 1.2.1.2c.3 0 .5 0 .7-.2l1-.6a1.6 1.6 0 0 0 0-2.7l-1-.6a1.6 1.6 0 0 0-2.5 1.4V15.3l.2.1m.9-9a1.6 1.6 0 0 1-1.4 2.3h-.1A1.6 1.6 0 0 1 13 6.3a1.7 1.7 0 0 1 2.9 0Zm4.6 4.5a1.6 1.6 0 0 1-1.4 2.4H19a1.6 1.6 0 0 1-1.3-2.4 1.7 1.7 0 0 1 2.9 0Zm-1.6-6.1a1.6 1.6 0 0 1-1.3 2.4h-.2a1.6 1.6 0 0 1-1.3-2.4 1.7 1.7 0 0 1 2.8 0Zm3.1 3a1.6 1.6 0 0 1-1.4 2.4h-.1A1.6 1.6 0 0 1 19 8a1.7 1.7 0 0 1 2.9 0Zm.8-3.8a1.6 1.6 0 0 1-1.4 2.4h-.2A1.6 1.6 0 0 1 20 4a1.7 1.7 0 0 1 2.9 0Z" stroke="#000" stroke-linecap="round"/></g><defs><clipPath id="a"><path fill="#fff" d="M0 0h26v26H0z"/></clipPath></defs></svg>