<svg width="26" height="26" fill="none" xmlns="http://www.w3.org/2000/svg"><path d="m4.3 21.7.6-.1 1-.2 1-.2.9-.2.8-.2.5-.1.8-.2.4-.1.7-.3a28 28 0 0 0 2-.6l.5-.2c1.2-.5 2-1 2.5-1.5A5.5 5.5 0 1 0 8.2 10c-.5.5-1 1.3-1.5 2.5l-.2.5-.6 2-.3.7c0 .3 0 .6-.2.8l-.2.9-.2.8v.5l-.3 1-.2 1-.2 1Zm0 0 1.3-.3 1.4-.3 1.2-.2 1-.3.6-.1.5-.2.7-.2.7-.2.4-.1.8-.3-7.4-3.3-1.2 5.5Zm14-12.5-.3.4 5.8-1.2-6.2-6.2L16.4 8l.4-.4m1.6 1.6-1.6-1.6m1.6 1.6-1.6 1.5-1.5-1.5 1.5-1.6M21.1 5 19 7" stroke="#000" stroke-linejoin="round"/></svg>