<svg width="26" height="26" fill="none" xmlns="http://www.w3.org/2000/svg"><path clip-rule="evenodd" d="M19.7 15.7a.4.4 0 0 1 .6.6l-.3.2c-.4 2-.8 3.2-1.4 3.8a2 2 0 0 1-2.9 0 2 2 0 0 1 0-2.9c.6-.6 1.8-1 3.7-1.4l.3-.3Zm-14-.2c0-.2.3-.2.5-.1l.3.2c2-.1 3.3 0 4 .4a2 2 0 0 1 .8 2.8 2 2 0 0 1-2.8.7C7.8 19.1 7 18 6 16.3l-.3-.2a.4.4 0 0 1-.2-.6Zm8.2-8.2c.2 0 .4.1.4.4V8c1 1.6 1.6 2.8 1.6 3.6 0 1.3-1 2-2 2a2 2 0 0 1-2-2c0-.8.5-2 1.6-3.6v-.4c0-.3.1-.4.4-.4Zm5.4-1.1a2 2 0 0 1 2.5 1.4c.2.8 0 2.1-.6 4l.1.4a.4.4 0 1 1-.8.2v-.4c-1.6-1.3-2.4-2.3-2.6-3.1a2 2 0 0 1 1.4-2.5Zm-11.2-2h.1c.2 0 .3.2.3.4l-.1.4C9 7 9.2 8.2 9 9a2 2 0 0 1-2.5 1.4A2 2 0 0 1 5.1 8c.2-.8 1-1.8 2.5-3l.1-.5c0-.2.3-.3.5-.3h0Z" stroke="#000" stroke-linecap="round"/></svg>