<svg width="26" height="26" fill="none" xmlns="http://www.w3.org/2000/svg"><path clip-rule="evenodd" d="M8.1 3.3h5.5a3.7 3.7 0 0 1 3.7 3.6V7c0 1.1.4 2.1 1 3l.7.8c1 1.3 1 3.1.2 4.5l-.8 1.3a7.8 7.8 0 0 0-1 4c0 1.2-1 2.3-2.2 2.5l-5.4.7V20c0-.9.3-1.7.9-2.4l.1-.2c.7-.6.9-1.6.6-2.5h0c-.4-.8-.4-1.7-.1-2.4V12c.4-.8.2-1.7-.4-2.3h0C10 9 9.6 8 9.6 7V5c0-1-.7-1.7-1.6-1.7Zm5.4 18.4a1.6 1.6 0 1 0 0-3.3 1.6 1.6 0 0 0 0 3.3Zm1.7-6a2.2 2.2 0 1 0 0-4.3 2.2 2.2 0 0 0 0 4.3Zm-1.7-6.5a1.6 1.6 0 1 0 0-3.2 1.6 1.6 0 0 0 0 3.2Z" stroke="#000" stroke-linecap="round"/></svg>