<svg width="26" height="26" fill="none" xmlns="http://www.w3.org/2000/svg"><path d="M13 8.1V19M9.3 8.8a2.2 2.2 0 0 0 1.9 3.6m4.4 7c.9-.8.9-2.2 0-3m2.1-4.4c-.6-.7-1.6-.7-2.3 0m-7.1 5.2c.6.7 1.6.7 2.3 0m2.4 5.6c5.4 0 7.6-4.4 7.6-8.6 0-4.4-2.5-7.7-7.6-9.9-5 2.2-7.6 5.5-7.6 10 0 4.1 2.2 8.4 7.6 8.4Zm0-15.6 1.2 1.2c.3-.2.6-.3 1-.3a2.2 2.2 0 0 1 1.8 3.4 2.2 2.2 0 0 1 1.1 3.1 2.2 2.2 0 0 1-1.9 3.2 2.2 2.2 0 0 1-3.2 2l-1 .2c-1.3 0-2.3-1-2.3-2.1h-.1a2.2 2.2 0 0 1-1.7-3.3c-.2-.3-.3-.7-.3-1 0-1 .6-1.8 1.4-2.1-.2-.3-.3-.8-.3-1.2a2.2 2.2 0 0 1 3.1-2l1.2-1Z" stroke="#000" stroke-linecap="square"/></svg>