<svg width="26" height="26" fill="none" xmlns="http://www.w3.org/2000/svg"><path clip-rule="evenodd" d="M3.8 22.2 16.5 9.5 3.8 22.2ZM9.6 10a4 4 0 0 1 .3 6.2l-.3.2a4 4 0 0 1-.2-6.2l.2-.2Zm3.2-3.2A4 4 0 0 1 13 13l-.2.2a4 4 0 0 1-.2-6.2l.2-.2ZM16 3.7a4 4 0 0 1 .2 6.1l-.2.2a4 4 0 0 1-.2-6.2l.2-.1Zm6.3 6.3a4 4 0 0 1-6.1.2L16 10a4 4 0 0 1 6.2-.2l.1.2Zm-3.1 3.2a4 4 0 0 1-6.2.2l-.2-.2A4 4 0 0 1 19 13l.2.2ZM16 16.4a4 4 0 0 1-6.2.2l-.2-.2a4 4 0 0 1 6.2-.3l.2.3Zm-9.6-3.1a4 4 0 0 1 .2 6.1l-.2.2a4 4 0 0 1-.2-6.2l.2-.1Zm6.3 6.3a4 4 0 0 1-6.1.2l-.2-.2a4 4 0 0 1 6.2-.2l.1.2Zm9.8-16A4 4 0 0 1 18.3 8H18a4 4 0 0 1 4.5-4.6Z" stroke="#000" stroke-linecap="round"/></svg>